<svg aria-hidden="true" style="position: absolute; width: 0; height: 0; overflow: hidden;" version="1.1" xmlns="http://www.w3.org/2000/svg" xmlns:xlink="http://www.w3.org/1999/xlink">
<defs>
<symbol id="icon-book-open" viewBox="0 0 40 32">
<path d="M37.0025 0.690915C33.2628 0.903512 25.8298 1.67734 21.2412 4.49101C20.9245 4.68515 20.745 5.03037 20.745 5.39131V30.2652C20.745 31.0548 21.6069 31.5538 22.3337 31.1874C27.0547 28.8071 33.8824 28.1577 37.2584 27.98C38.411 27.9191 39.307 26.9936 39.307 25.8841V2.78955C39.3077 1.5789 38.2595 0.619821 37.0025 0.690915ZM18.0658 4.49101C13.4779 1.67734 6.04492 0.904196 2.30523 0.690915C1.04821 0.619821 0 1.5789 0 2.78955V25.8848C0 26.9949 0.896024 27.9205 2.04864 27.9807C5.42596 28.1584 12.257 28.8085 16.9781 31.1901C17.7028 31.5559 18.562 31.0575 18.562 30.27V5.379C18.562 5.01738 18.3832 4.68584 18.0658 4.49101Z"></path>
</symbol>
<symbol id="icon-right" viewBox="0 0 9 18">
<path d="M7.88555 10.0976L3.1043 14.8789C2.77383 15.2094 2.23945 15.2094 1.9125 14.8789L1.11797 14.0844C0.7875 13.7539 0.7875 13.2195 1.11797 12.8926L4.50703 9.5035L1.11797 6.11444C0.7875 5.78397 0.7875 5.2496 1.11797 4.92264L1.90898 4.12108C2.23945 3.79061 2.77383 3.79061 3.10078 4.12108L7.88203 8.90233C8.21602 9.2328 8.21602 9.76718 7.88555 10.0976Z"></path>
</symbol>
<symbol id="icon-facebook" viewBox="0 0 35 35">
<path d="M34.4531 17.875C34.4531 8.50977 26.8652 0.921875 17.5 0.921875C8.13477 0.921875 0.546875 8.50977 0.546875 17.875C0.546875 26.3516 6.69922 33.3926 14.834 34.623V22.7969H10.5273V17.875H14.834V14.1836C14.834 9.94531 17.3633 7.55273 21.1914 7.55273C23.1055 7.55273 25.0195 7.89453 25.0195 7.89453V12.0645H22.9004C20.7812 12.0645 20.0977 13.3633 20.0977 14.7305V17.875H24.8145L24.0625 22.7969H20.0977V34.623C28.2324 33.3926 34.4531 26.3516 34.4531 17.875Z"></path>
</symbol>
<symbol id="icon-twitter" viewBox="0 0 35 30">
<path d="M31.377 7.76562C32.7441 6.74023 33.9746 5.50977 34.9316 4.07422C33.7012 4.62109 32.2656 5.03125 30.8301 5.16797C32.334 4.2793 33.4277 2.91211 33.9746 1.20312C32.6074 2.02344 31.0352 2.63867 29.4629 2.98047C28.0957 1.54492 26.25 0.724609 24.1992 0.724609C20.2344 0.724609 17.0215 3.9375 17.0215 7.90234C17.0215 8.44922 17.0898 8.99609 17.2266 9.54297C11.2793 9.20117 5.94727 6.33008 2.39258 2.02344C1.77734 3.04883 1.43555 4.2793 1.43555 5.64648C1.43555 8.10742 2.66602 10.2949 4.64844 11.5938C3.48633 11.5254 2.32422 11.252 1.36719 10.7051V10.7734C1.36719 14.2598 3.82812 17.1309 7.10938 17.8145C6.5625 17.9512 5.87891 18.0879 5.26367 18.0879C4.78516 18.0879 4.375 18.0195 3.89648 17.9512C4.78516 20.8223 7.45117 22.873 10.5957 22.9414C8.13477 24.8555 5.05859 26.0176 1.70898 26.0176C1.09375 26.0176 0.546875 25.9492 0 25.8809C3.14453 27.9316 6.9043 29.0938 11.0059 29.0938C24.1992 29.0938 31.377 18.2246 31.377 8.72266C31.377 8.38086 31.377 8.10742 31.377 7.76562Z"></path>
</symbol>
<symbol id="icon-yuotube" viewBox="0 0 38 27">
<path d="M36.8418 4.91992C36.4316 3.2793 35.1328 1.98047 33.5605 1.57031C30.6211 0.75 19 0.75 19 0.75C19 0.75 7.31055 0.75 4.37109 1.57031C2.79883 1.98047 1.5 3.2793 1.08984 4.91992C0.269531 7.79102 0.269531 13.9434 0.269531 13.9434C0.269531 13.9434 0.269531 20.0273 1.08984 22.9668C1.5 24.6074 2.79883 25.8379 4.37109 26.248C7.31055 27 19 27 19 27C19 27 30.6211 27 33.5605 26.248C35.1328 25.8379 36.4316 24.6074 36.8418 22.9668C37.6621 20.0273 37.6621 13.9434 37.6621 13.9434C37.6621 13.9434 37.6621 7.79102 36.8418 4.91992ZM15.1719 19.4805V8.40625L24.8789 13.9434L15.1719 19.4805Z"></path>
</symbol>
<symbol id="icon-linkedIn" viewBox="0 0 31 31">
<path d="M7.02344 31V10.5605H0.666016V31H7.02344ZM3.81055 7.82617C5.86133 7.82617 7.50195 6.11719 7.50195 4.06641C7.50195 2.08398 5.86133 0.443359 3.81055 0.443359C1.82812 0.443359 0.1875 2.08398 0.1875 4.06641C0.1875 6.11719 1.82812 7.82617 3.81055 7.82617ZM30.7441 31H30.8125V19.7891C30.8125 14.3203 29.582 10.082 23.1562 10.082C20.0801 10.082 18.0293 11.791 17.1406 13.3633H17.0723V10.5605H10.9883V31H17.3457V20.8828C17.3457 18.2168 17.8242 15.6875 21.1055 15.6875C24.3867 15.6875 24.4551 18.6953 24.4551 21.0879V31H30.7441Z"></path>
</symbol>


<symbol id="icon-pencil-alt" viewBox="0 0 32 32">
<path d="M31.119 8.881l-2.881 2.881c-0.294 0.294-0.769 0.294-1.063 0l-6.938-6.938c-0.294-0.294-0.294-0.769 0-1.063l2.881-2.881c1.169-1.169 3.069-1.169 4.244 0l3.756 3.756c1.175 1.169 1.175 3.069 0 4.244zM17.763 6.238l-16.413 16.413-1.325 7.594c-0.181 1.025 0.713 1.912 1.738 1.738l7.594-1.331 16.413-16.412c0.294-0.294 0.294-0.769 0-1.063l-6.938-6.938c-0.3-0.294-0.775-0.294-1.069 0zM7.756 21.244c-0.344-0.344-0.344-0.894 0-1.237l9.625-9.625c0.344-0.344 0.894-0.344 1.238 0s0.344 0.894 0 1.238l-9.625 9.625c-0.344 0.344-0.894 0.344-1.237 0zM5.5 26.5h3v2.269l-4.031 0.706-1.944-1.944 0.706-4.031h2.269v3z"></path>
</symbol>
<symbol id="icon-university" viewBox="0 0 32 32">
<path d="M31 8v1c0 0.133-0.053 0.26-0.146 0.354s-0.221 0.146-0.354 0.146h-1.5v0.75c0 0.414-0.336 0.75-0.75 0.75h-24.5c-0.414 0-0.75-0.336-0.75-0.75v-0.75h-1.5c-0.133 0-0.26-0.053-0.354-0.146s-0.146-0.221-0.146-0.354v-1c0-0.099 0.029-0.196 0.084-0.278s0.133-0.146 0.224-0.184l14.5-5.5c0.122-0.051 0.26-0.051 0.382 0l14.5 5.5c0.091 0.038 0.169 0.102 0.224 0.184s0.084 0.179 0.084 0.278zM29.5 27h-27c-0.828 0-1.5 0.672-1.5 1.5v1c0 0.133 0.053 0.26 0.146 0.354s0.221 0.146 0.354 0.146h29c0.133 0 0.26-0.053 0.354-0.146s0.146-0.221 0.146-0.354v-1c0-0.828-0.672-1.5-1.5-1.5zM6 12v12h-2.25c-0.414 0-0.75 0.336-0.75 0.75v1.25h26v-1.25c0-0.414-0.336-0.75-0.75-0.75h-2.25v-12h-4v12h-4v-12h-4v12h-4v-12h-4z"></path>
</symbol>
<symbol id="icon-svg-1" viewBox="0 0 32 32">
<path d="M21.858 6.167c0-3.258-2.642-5.9-5.9-5.9s-5.9 2.641-5.9 5.9c0 3.259 2.641 5.9 5.9 5.9s5.9-2.641 5.9-5.9zM14.581 15.084c-3.646-2.232-9.552-2.845-12.524-3.014-0.999-0.056-1.831 0.704-1.831 1.665v13.693c0 0.881 0.712 1.615 1.628 1.662 2.683 0.141 8.112 0.656 11.864 2.546 0.576 0.29 1.259-0.105 1.259-0.73v-15.118c-0.001-0.287-0.143-0.55-0.395-0.704zM29.859 12.070c-2.971 0.168-8.878 0.782-12.524 3.014-0.252 0.154-0.394 0.428-0.394 0.715v15.106c0 0.626 0.685 1.022 1.262 0.731 3.751-1.888 9.177-2.404 11.859-2.544 0.916-0.048 1.628-0.782 1.628-1.663v-13.694c-0.001-0.961-0.833-1.721-1.832-1.665z"></path>
</symbol>
</defs>
</svg>